<?xml version="1.0" encoding="UTF-8" standalone="no"?>

<svg
   width="1740"
   height="600"
   viewBox="0 0 1740 600.00001"
   version="1.1"
   id="svg1"
   xmlns="http://www.w3.org/2000/svg"
   xmlns:svg="http://www.w3.org/2000/svg">
  <defs
     id="defs1" />
  <style
       type="text/css"
       id="style1"><![CDATA[
         .autotheme { fill: #000000; }
         @media (prefers-color-scheme: dark) {
            .autotheme { fill: #ffffff; }
         }
      ]]></style>
  <path
     id="path2"
     class="autotheme"
     d="M 377.86318 -359.09971 C 297.86318 -359.09971 254.34318 -314.29971 258.18318 -237.49971 L 262.02318 -166.45971 C 264.58318 -112.05971 234.50317 -77.499717 183.94318 -77.499717 L 150.66318 -77.499717 L 150.66318 -26.299719 L 183.94318 -26.299719 C 234.50317 -26.299719 264.58318 8.2602789 262.02318 62.660278 L 258.18318 133.70028 C 254.34318 210.50028 297.86318 255.30027 377.86318 255.30027 L 425.22318 255.30027 L 425.22318 206.66027 L 379.78318 206.66027 C 334.34318 206.66027 310.02318 181.70028 312.58318 137.54028 L 315.78318 64.580278 C 318.98318 5.7002787 289.54318 -42.299718 244.74318 -50.619718 L 244.74318 -53.179718 C 288.90318 -61.499718 318.98318 -109.49971 315.78318 -168.37971 L 312.58318 -241.33971 C 310.02318 -285.49971 334.34318 -310.45971 379.78318 -310.45971 L 422.66318 -310.45971 L 422.66318 -359.09971 L 377.86318 -359.09971 z M 1107.4632 -359.09971 L 1107.4632 -310.45971 L 1150.3432 -310.45971 C 1195.7832 -310.45971 1220.1032 -285.49971 1217.5432 -241.33971 L 1214.3432 -168.37971 C 1211.1432 -109.49971 1241.2232 -61.499718 1285.3831 -53.179718 L 1285.3831 -50.619718 C 1240.5832 -42.299718 1211.1432 5.7002787 1214.3432 64.580278 L 1217.5432 137.54028 C 1220.1032 181.70028 1195.7832 206.66027 1150.3432 206.66027 L 1104.9032 206.66027 L 1104.9032 255.30027 L 1152.2632 255.30027 C 1232.2632 255.30027 1275.7831 210.50028 1271.9431 133.70028 L 1268.1031 62.660278 C 1265.5431 8.2602789 1295.623 -26.299719 1346.1831 -26.299719 L 1379.4631 -26.299719 L 1379.4631 -77.499717 L 1346.1831 -77.499717 C 1295.623 -77.499717 1265.5431 -112.05971 1268.1031 -166.45971 L 1271.9431 -237.49971 C 1275.7831 -314.29971 1232.2632 -359.09971 1152.2632 -359.09971 L 1107.4632 -359.09971 z M -220.5448 -359.05771 C -228.3899 -358.86951 -236.36579 -358.05161 -242.2628 -356.65371 C -253.95022 -353.88331 -273.70169 -346.20171 -279.1208 -342.31971 C -281.93363 -340.30551 -287.01738 -337.23621 -290.4188 -335.49971 C -299.59691 -330.81451 -305.42255 -326.83311 -307.9548 -323.51171 C -309.1962 -321.88361 -312.23487 -319.37691 -314.7068 -317.94371 C -322.05134 -313.68521 -346.64289 -304.76521 -364.1708 -299.99971 C -373.17196 -297.55271 -381.8694 -294.86741 -383.4948 -294.03371 C -388.25824 -291.59581 -387.19262 -289.68591 -380.6128 -288.86371 C -377.39847 -288.46221 -374.16978 -287.41181 -373.4368 -286.52971 C -372.48715 -285.38551 -370.07695 -284.95231 -365.0228 -285.01971 C -361.12689 -285.06971 -356.72807 -285.03871 -355.2488 -284.95171 C -353.76953 -284.86371 -350.74232 -285.15411 -348.5228 -285.59571 C -345.49749 -286.19821 -344.4888 -286.04601 -344.4888 -284.98371 C -344.4888 -284.20451 -343.47713 -282.48951 -342.2428 -281.17571 C -340.43277 -279.24931 -340.22621 -278.36611 -341.1688 -276.60571 C -341.81105 -275.40531 -342.3348 -273.46831 -342.3348 -272.30171 C -342.3348 -271.13521 -344.02966 -268.15291 -346.1008 -265.67371 C -348.17195 -263.19441 -349.8688 -260.42161 -349.8688 -259.51371 C -349.8688 -258.60591 -351.56325 -255.98681 -353.6348 -253.69371 C -355.70645 -251.40111 -357.4008 -248.99671 -357.4008 -248.34971 C -357.4008 -247.70241 -359.33792 -244.97121 -361.7048 -242.28171 C -364.10587 -239.55431 -366.0088 -236.27961 -366.0088 -234.87571 C -366.0088 -233.49171 -367.96993 -229.80651 -370.3668 -226.68771 C -373.96954 -221.99708 -374.63322 -220.40198 -374.1928 -217.46771 C -373.76896 -214.64475 -374.52553 -212.55669 -377.8948 -207.24571 C -382.26595 -200.3546 -383.06497 -197.07326 -380.8948 -194.90371 C -379.93788 -193.9474 -380.85223 -191.07049 -384.7328 -182.81971 C -390.17075 -171.25896 -390.53928 -168.4935 -386.7128 -167.94771 C -385.38713 -167.75939 -384.3028 -167.07483 -384.3028 -166.42971 C -384.3028 -165.78418 -387.1436 -161.09756 -390.6168 -156.01371 C -402.1624 -139.11505 -405.02614 -131.05052 -399.7508 -130.29972 C -397.97999 -130.04669 -394.9255 -132.82536 -386.5588 -142.29572 C -377.00273 -153.11121 -372.96535 -156.77478 -371.8408 -155.64971 C -371.39454 -155.20294 -383.46071 -136.58679 -388.2048 -130.40572 C -393.88288 -123.00671 -399.75593 -110.26533 -398.9568 -107.07772 C -398.25731 -104.29336 -395.96198 -102.91273 -393.5608 -103.83372 C -392.73433 -104.15095 -388.81342 -108.2868 -384.8488 -113.02372 C -380.88408 -117.76034 -377.40743 -121.40266 -377.1248 -121.11972 C -376.84238 -120.8372 -379.06894 -115.93755 -382.0708 -110.23172 C -387.70034 -99.537774 -388.70001 -94.829127 -385.9348 -92.063717 C -383.75521 -89.884237 -380.90495 -90.854337 -376.6788 -95.213717 C -374.72204 -97.232627 -372.7846 -98.885717 -372.3748 -98.885717 C -371.96489 -98.885717 -371.30756 -97.166607 -370.9128 -95.063717 C -369.43671 -87.194077 -364.34268 -89.061005 -351.4668 -102.18972 C -345.56631 -108.20869 -341.1958 -111.82172 -339.7708 -111.82172 C -332.37353 -111.89852 -319.02847 -123.00333 -306.8268 -139.23772 C -300.06676 -148.23059 -299.13766 -149.06424 -296.3188 -148.64972 C -293.67565 -148.26183 -292.40408 -149.0968 -287.5708 -154.38371 C -281.31898 -161.22526 -272.05946 -179.11047 -268.1188 -191.96371 C -265.58696 -200.22033 -260.04296 -223.73562 -258.2228 -233.92971 C -257.58843 -237.48081 -254.40501 -246.43791 -251.1488 -253.83571 C -247.89278 -261.23351 -244.07546 -271.13401 -242.6648 -275.83571 C -239.19416 -287.40621 -237.21614 -288.56421 -231.4248 -282.42371 C -229.5089 -280.39291 -227.3526 -277.02321 -226.6348 -274.93371 C -225.9119 -272.83131 -222.6229 -268.57361 -219.2708 -265.40371 C -215.9381 -262.25221 -213.2108 -258.94771 -213.2108 -258.05971 C -213.2108 -256.23151 -204.24871 -247.19681 -200.56681 -245.31371 C -198.99691 -244.51071 -198.14481 -243.09621 -198.14481 -241.28571 C -198.14481 -239.34951 -196.41611 -236.77311 -192.49681 -232.87571 C -189.39011 -229.78581 -184.42591 -224.72234 -181.46681 -221.62371 C -178.50711 -218.52529 -175.23781 -215.52998 -174.20081 -214.96771 C -173.16521 -214.40512 -171.15871 -211.6637 -169.74481 -208.87371 C -166.72391 -202.91669 -164.59091 -200.83171 -159.24681 -198.62571 C -156.18351 -197.36148 -155.14601 -196.21475 -154.53881 -193.40971 C -153.25111 -187.45976 -148.00821 -178.13194 -144.50481 -175.55771 C -142.25271 -173.90426 -140.98951 -171.86681 -140.50081 -169.10171 C -139.18761 -161.66747 -133.89281 -152.00735 -129.81081 -149.59972 C -126.74311 -147.78949 -126.06111 -146.72957 -126.02481 -143.84772 C -126.00981 -141.90345 -124.43451 -135.7121 -122.52681 -130.08972 C -119.49771 -121.16823 -118.74121 -119.87586 -116.57881 -119.83972 C -113.46641 -119.80492 -112.10911 -117.69692 -112.07281 -112.87572 C -112.02981 -106.14569 -105.08741 -79.515717 -103.37681 -79.515717 C -102.82721 -79.515717 -102.32621 -83.271427 -102.26281 -87.857717 C -101.93421 -111.94568 -99.192009 -124.55267 -97.570809 -109.42972 C -96.084209 -95.563014 -92.706909 -77.516618 -89.948809 -68.701718 C -84.903809 -52.575768 -84.036009 -55.128517 -86.756809 -78.095717 C -88.454309 -92.430687 -89.151809 -111.39137 -88.024809 -112.51972 C -87.631009 -112.91058 -87.312809 -111.90764 -87.312809 -110.28972 C -87.312809 -103.04472 -79.561909 -76.470978 -73.068809 -61.449718 C -70.728753 -56.038067 -68.6085 -51.794597 -68.302809 -51.903718 C -68.300498 -51.904859 -68.294891 -51.908026 -68.292809 -51.909718 C -68.042709 -52.160188 -69.783509 -59.805568 -72.162809 -68.899718 C -76.087709 -83.899568 -79.889509 -103.39317 -79.694809 -107.49572 C -79.691618 -107.56156 -79.676913 -107.60309 -79.656809 -107.61772 C -79.652395 -107.62024 -79.643942 -107.62139 -79.638809 -107.62172 C -79.332066 -107.60909 -77.837431 -103.95894 -76.084809 -98.885717 C -72.229809 -87.736197 -62.85901 -67.027488 -62.03881 -67.847718 C -61.75741 -68.128798 -62.52471 -70.990147 -63.74281 -74.205717 C -70.98131 -93.318367 -75.670009 -110.30727 -75.156809 -115.56572 C -75.040809 -116.74977 -76.063009 -122.55982 -77.426809 -128.47772 C -83.258309 -153.77441 -84.062409 -158.48706 -85.684809 -176.89971 C -90.860309 -235.61164 -96.925404 -272.47211 -103.18081 -283.23371 C -105.22161 -286.74421 -126.46031 -305.55191 -136.51881 -312.75571 C -139.61331 -314.97201 -142.16881 -317.56681 -142.16881 -318.52171 C -142.20281 -321.06121 -130.66191 -325.96911 -125.40881 -325.64971 C -121.30591 -325.39941 -121.20241 -325.48331 -120.88281 -329.28771 C -120.59581 -332.72211 -121.11981 -333.67721 -125.31481 -337.36971 C -128.25181 -339.95461 -130.35801 -342.86791 -130.82281 -344.98371 C -131.83721 -349.60601 -138.45421 -355.36161 -145.40281 -357.66971 C -151.52511 -359.70321 -163.55301 -359.46851 -181.63481 -356.96171 C -189.15601 -355.91931 -191.72851 -356.02131 -199.61281 -357.67571 C -204.98571 -358.80321 -212.6995 -359.24591 -220.5448 -359.05771 z M 947.31916 -287.89971 C 865.39912 -287.89971 808.43916 -237.97971 808.43916 -166.29971 L 883.95916 -166.29971 C 885.23916 -197.01971 912.11912 -218.77971 947.31916 -218.77971 C 984.43921 -218.77971 1012.5992 -193.81971 1012.5992 -160.53971 C 1012.5992 -128.53971 986.99921 -105.49972 949.87916 -105.49972 L 913.39916 -105.49972 L 913.39916 -31.899719 L 954.99916 -31.899719 C 997.87921 -31.899719 1027.9592 -4.3796905 1027.9592 35.300279 C 1027.9592 74.980279 997.87921 102.50028 953.71916 102.50028 C 912.75912 102.50028 880.75916 78.180279 878.83916 44.900279 L 802.03916 44.900279 C 802.03916 118.50028 865.39912 172.90028 951.79916 172.90028 C 1040.7592 172.90028 1104.7592 115.30028 1104.7592 35.940279 C 1104.7592 -16.539691 1076.5992 -54.939717 1027.3192 -72.859717 L 1027.3192 -75.419717 C 1066.3592 -92.059717 1088.1192 -123.41971 1088.1192 -166.93971 C 1088.1192 -237.33971 1029.8792 -287.89971 947.31916 -287.89971 z M 546.96717 -281.49971 L 425.36718 166.50028 L 502.80717 166.50028 L 532.24717 55.140279 L 671.76717 55.140279 L 701.20717 166.50028 L 779.92716 166.50028 L 658.32717 -281.49971 L 546.96717 -281.49971 z M 600.72717 -201.49971 L 603.28717 -201.49971 L 652.56717 -15.259719 L 551.44717 -15.259719 L 600.72717 -201.49971 z "
     style="font-size:640px;line-height:0.7;font-family:CommitMono-rtemis;-inkscape-font-specification:CommitMono-rtemis;font-feature-settings:'ss01';letter-spacing:0px;word-spacing:0px;white-space:pre;display:inline;stroke-width:5.09"
     transform="matrix(0.97656253,0,0,0.97656253,392.86798,350.68332)" />
</svg>
