<?xml version="1.0" encoding="UTF-8" standalone="no"?>
<!-- Created with Inkscape (http://www.inkscape.org/) -->

<svg
   width="1300"
   height="600.00012"
   viewBox="0 0 1299.9999 600.00012"
   version="1.1"
   id="svg1"
   xmlns="http://www.w3.org/2000/svg"
   xmlns:svg="http://www.w3.org/2000/svg">
  <defs
     id="defs1">
     <style
       type="text/css"
       id="style1"><![CDATA[
         .theme-fill { fill: #000000; }
         @media (prefers-color-scheme: dark) {
            .theme-fill { fill: #ffffff; }
         }
      ]]></style>
    <rect
       x="-130.68719"
       y="-1995.158"
       width="2692.1562"
       height="1550.8214"
       id="rect1" />
  </defs>
  <path
     id="path12"
     class="theme-fill"
     style="font-weight:bold;font-size:640px;line-height:0.7;font-family:CommitMono-rtemis;-inkscape-font-specification:'CommitMono-rtemis Bold';font-feature-settings:'ss01';letter-spacing:0px;word-spacing:0px;white-space:pre;display:inline;stroke-width:6.43112"
     d="M 1127.2564,0.0062736 V 16.913299 c 11.1749,0.0439 22.361,-0.155368 33.5232,0.468495 14.9108,1.177153 29.8133,5.31889 42.4477,13.491132 16.2303,10.417 27.7748,27.66295 31.6235,46.52263 2.4592,10.82849 2.6214,22.03448 1.8379,33.067544 -1.1104,21.62734 -2.2922,43.26955 -3.2485,64.88405 -0.012,0.46405 -0.04,1.33135 -0.046,1.95378 -0.029,2.5151 -0.011,5.02173 0.077,7.45989 0.5276,15.93101 3.4669,31.95992 10.1164,46.52006 2.9268,6.38714 6.621,12.44011 11.1332,17.83372 0.5446,0.65492 1.3095,1.53562 1.9743,2.24981 7.0009,7.63992 16.0244,13.52947 26.0221,16.34586 1.0608,0.30216 2.262,0.62293 3.1971,0.82116 4.611,1.04895 9.319,1.56225 14.0034,2.15714 -13.4122,-9.95064 -24.0319,-23.47631 -30.9773,-38.63287 -7.3054,-15.85737 -10.618,-33.34156 -10.9813,-50.73652 -0.1332,-5.69994 0.044,-11.52974 0.4298,-17.13869 1.0492,-19.63118 2.1232,-39.26158 3.0967,-58.89659 0.2136,-4.47384 0.3687,-9.120384 0.2188,-13.663584 -0.39,-15.32109 -3.085,-30.8094 -9.7611,-44.70528 -5.4048,-11.21067 -13.6576,-21.066126 -23.9139,-28.143199 -12.5385,-8.743636 -27.3518,-13.6912334 -42.3191,-16.2763584 -8.2281,-1.411376 -16.563,-2.177331 -24.9074,-2.378517 -2.1575,-0.05817 -4.5367,-0.07253 -6.7803,-0.0901 -6.9404,-0.03732 -13.8818,-0.0279 -20.8224,-0.01802 v -0.0026 c -1.9814,-6.58e-4 -3.9621,0 -5.9437,0 z m -444.30111,0.0026 c -9.6802,0 -19.36126,0.0103 -29.04157,0.0103 v -0.0026 c -2.94293,0.02744 -5.87327,0.110659 -8.86537,0.262563 -1.86314,0.0889 -3.86697,0.228092 -5.81759,0.375826 -1.10284,0.09439 -2.50419,0.21219 -3.71964,0.342362 -9.59448,0.972784 -19.12683,2.766303 -28.32596,5.6863 -1.14379,0.373506 -2.55783,0.836959 -3.79173,1.287076 -5.32643,1.913737 -10.50163,4.2616414 -15.39342,7.1123804 -0.52464,0.313578 -1.38126,0.8112 -2.02071,1.214999 -10.12801,6.233146 -18.84506,14.854076 -24.77363,25.195786 -6.16773,10.47606 -9.70403,22.32591 -11.38805,34.31859 -0.23082,1.56669 -0.4448,3.36473 -0.59977,4.79564 -0.0955,1.04478 -0.20547,2.01881 -0.27286,2.968 -0.19351,2.33542 -0.30663,4.67578 -0.40157,7.01713 -0.0132,0.44375 -0.031,1.31719 -0.0463,1.92547 -0.0428,2.11569 -0.051,4.46312 0,6.69537 0.23104,8.965234 0.86062,17.928154 1.30767,26.928184 0.86489,17.11859 1.94344,34.22825 2.51494,51.35947 0.10647,20.76639 -4.08148,41.79922 -13.84378,60.24029 -6.83627,12.87173 -16.53312,24.21542 -28.19983,32.95171 7.47495,-1.01724 15.12582,-1.74556 22.16602,-4.64635 1.43881,-0.56228 3.09299,-1.32287 4.31942,-1.94092 3.77315,-1.89584 7.32038,-4.23143 10.59006,-6.90129 0.55724,-0.46493 1.3655,-1.13629 2.00012,-1.71439 7.90662,-7.03262 13.715,-16.14226 17.97272,-25.76209 4.79148,-10.90795 7.49482,-22.84264 8.7341,-34.53997 0.387,-3.74208 0.63414,-7.65768 0.73106,-11.31854 0.0757,-3.03129 0.0745,-6.06378 -0.0309,-9.02241 -1.04018,-24.65303 -2.60818,-49.31303 -3.61411,-73.9811 -0.43377,-16.048454 2.89937,-32.443034 11.08687,-46.370754 8.80652,-14.95187 23.29085,-26.2689 39.65221,-31.878285 12.61326,-4.412702 26.07508,-5.831468 39.37938,-5.706893 6.56362,0.01756 13.12861,0.0103 19.69224,0.0103 z M 1029.763,53.046676 c -73.7766,0 -128.66555,37.77641 -144.32239,95.421204 L 861.40317,59.906796 h -119.3608 l -130.337,480.192454 h 83.00351 l 31.55394,-119.36341 h 149.54531 l 31.55652,119.36339 h 71.39665 c 16.4819,4.51742 35.1237,6.85754 55.805,6.85754 95.3522,0 163.9503,-61.7364 163.9503,-146.7987 0,-56.25087 -30.1826,-97.41172 -83.0035,-116.61934 v -2.74405 c 41.8452,-17.83565 65.1672,-51.44868 65.1672,-98.09575 0,-75.45849 -62.4251,-129.652274 -150.9173,-129.652274 z m 0,74.086654 c 39.7873,0 69.9706,26.75444 69.9706,62.42574 0,34.29931 -27.4394,58.9944 -67.2266,58.9944 h -39.1014 v 78.89001 h 44.5895 c 45.9611,0 78.2028,29.49618 78.2028,72.02733 0,42.53115 -32.2418,72.0299 -79.5748,72.0299 -33.9008,0 -62.07639,-15.54201 -74.10211,-39.0473 v -0.003 l -6.15737,-22.68342 v -0.008 L 894.91864,183.38622 h 66.93307 c 1.37198,-32.92734 30.18209,-56.25292 67.91129,-56.25292 z m -230.09826,18.52359 h 2.74404 l 52.82159,199.62027 H 746.84315 Z m -290.44405,182.8677 1.13005,0.82116 v 0.003 c 14.27422,10.58812 25.34207,25.2448 32.25154,41.57511 6.1742,14.5293 9.11451,30.29495 9.61445,46.03356 0.21162,6.21295 0.0483,12.43564 -0.37067,18.63685 -1.08825,20.78132 -2.30148,41.76419 -3.24858,62.60335 -0.0428,0.90078 -0.0743,1.47248 -0.0875,2.35021 -0.067,2.24311 -0.0521,4.68938 -0.0257,6.80606 0.0252,0.85632 0.0457,1.95691 0.0721,2.65651 0.0713,1.60664 0.15022,3.28596 0.26513,4.83683 0.16969,2.43696 0.4164,4.93633 0.72591,7.43673 0.15388,1.21085 0.36235,2.69249 0.5586,3.90499 0.42476,2.69708 0.96675,5.37492 1.58567,8.03393 0.13149,0.49731 0.33501,1.38271 0.50711,2.02842 3.10593,12.14218 8.57371,23.83386 16.9096,33.27863 8.34488,9.52972 19.2233,16.65167 30.98506,21.23933 10.02912,3.98431 20.42088,6.37023 31.14465,7.75076 1.93295,0.24849 4.10587,0.48314 6.13936,0.66414 3.23324,0.29656 6.47599,0.48493 9.71999,0.61521 0.85655,0.0274 2.04716,0.059 3.03235,0.0875 2.86369,0.0604 5.97454,0.0996 8.93745,0.0952 10.25259,0.011 20.50606,0.0158 30.75853,0.018 v -16.9096 c -12.77109,-0.0395 -25.5486,0.11286 -38.31366,-0.3192 -15.0445,-0.93502 -30.13943,-4.7818 -43.06298,-12.7163 -16.72336,-10.18041 -28.79788,-27.51264 -32.89251,-46.62598 -2.52366,-10.69128 -2.8386,-21.78034 -2.08763,-32.70201 0.11711,-2.18176 0.24206,-4.58458 0.36038,-6.85239 1.00889,-19.61416 2.06882,-39.2131 2.93195,-58.81936 0.0165,-0.63341 0.0515,-1.63445 0.0592,-2.41197 0.0845,-5.21734 -0.0953,-10.45157 -0.55601,-15.59164 -1.01768,-11.33919 -3.38449,-22.96367 -7.67097,-33.73168 -0.44397,-1.13819 -0.88896,-2.18703 -1.35401,-3.22798 -5.00868,-11.41646 -12.43958,-22.04356 -22.61906,-29.41226 -2.07783,-1.5196 -4.46115,-3.0005 -6.61042,-4.13923 -6.84165,-3.67459 -14.46925,-5.68491 -22.16602,-6.48944 -2.2519,-0.27878 -4.48334,-0.76673 -6.62329,-1.52647 z M 1300,329.27625 c -0.2643,0.0362 -0.5285,0.0734 -0.7929,0.11068 -4.7076,0.67973 -9.4859,1.19808 -14.1552,2.26526 -13.5517,3.24312 -25.5079,11.93748 -33.4794,23.28062 -9.0211,12.55563 -14.0658,27.57334 -16.4746,42.74121 -1.3126,8.31229 -1.8264,16.74331 -1.7015,25.1546 0.021,0.85117 0.043,2.03765 0.09,3.01691 0.9515,22.98471 2.4142,46.00528 3.3979,69.02072 0.3086,6.31349 0.3003,12.66059 -0.4968,18.9406 -1.7018,13.93902 -6.6054,27.67841 -15.2596,38.8388 -9.537,12.39835 -23.2175,21.36701 -38.1541,25.84447 -12.7528,3.91144 -26.1997,4.83676 -39.472,4.59486 -7.7016,-0.0198 -15.4039,-8.8e-4 -23.1056,0 v 16.91475 c 13.0994,-0.0187 26.302,0.0651 39.3356,-0.16475 3.1418,-0.079 6.2892,-0.0938 9.424,-0.34236 1.5344,-0.1189 3.3209,-0.25384 4.9501,-0.42474 13.4253,-1.30952 26.9717,-4.24767 39.2532,-9.64534 10.4055,-4.54902 20.0167,-11.10372 27.5434,-19.65364 5.7258,-6.45628 10.1597,-13.99993 13.3676,-21.99612 0.439,-1.08364 0.9526,-2.45184 1.372,-3.66302 4.3822,-12.54609 6.0626,-25.90787 6.1033,-39.15541 0.011,-2.09265 -0.031,-4.07957 -0.09,-6.11876 -0.3805,-11.2707 -1.1487,-22.57041 -1.7092,-33.86811 -0.7329,-14.11913 -1.62,-28.2322 -2.0207,-42.36538 -0.1337,-14.6497 1.9581,-29.36327 6.5589,-43.28693 4.5942,-13.86779 11.8815,-26.91965 21.8365,-37.65725 4.1591,-4.54288 8.7532,-8.68602 13.6791,-12.38167 z" />
  <path
     class="theme-fill"
     style="display:inline;mix-blend-mode:normal;fill-opacity:1;stroke:none;stroke-width:9.06385"
     d="m 177.49192,0.0413336 c -7.6612,0.1838 -15.4505,0.9835 -21.2093,2.3486 -11.4135,2.7055 -30.7021,10.2060004 -35.9942,13.9970004 -2.7469,1.967 -7.7116,4.9649 -11.0333,6.6607 -8.963,4.5754 -14.651496,8.464002 -17.124396,11.707502 -1.2123,1.59 -4.1789,4.0366 -6.5929,5.4362 -7.1724,4.1587 -31.1879,12.8705 -48.305,17.5243 -8.7902,2.3896 -17.2839,5.0115 -18.8712,5.8257 -4.6518,2.3807 -3.6108,4.2453 2.8148,5.0482 3.139,0.3921 6.2916,1.4179 7.0074,2.2793 0.9274,1.1174 3.2813,1.541 8.217,1.4752 3.8046,-0.049 8.1001,-0.019 9.5447,0.066 1.4446,0.086 4.4003,-0.1972 6.5678,-0.6285 2.9544,-0.5884 3.9403,-0.4399 3.9403,0.5975 0,0.7609 0.9868,2.4346 2.1922,3.7176 1.7676,1.8813 1.9709,2.7449 1.0504,4.464 -0.6272,1.1723 -1.1404,3.0638 -1.1404,4.203 0,1.1392 -1.6552,4.0522 -3.6778,6.4733 -2.0226,2.4212 -3.6792,5.1279 -3.6792,6.0145 0,0.8866 -1.6547,3.444794 -3.6777,5.684094 -2.0231,2.23887 -3.6777,4.58747 -3.6777,5.21937 0,0.6321 -1.8916,3.298 -4.203,5.9245 -2.3448,2.6635 -4.2029,5.8621 -4.2029,7.2331 0,1.3516 -1.9154,4.95 -4.2561,7.9957 -3.5183,4.5807 -4.1669,6.1379 -3.7368,9.0034 0.4139,2.7568 -0.3239,4.7964 -3.6142,9.9829 -4.2687,6.7296 -5.0492,9.9339 -2.9299,12.0526 0.9345,0.9339 0.041,3.7445 -3.7486,11.8019 -5.3105,11.2898 -5.6693,13.9907 -1.9325,14.5237 1.2946,0.1839 2.3529,0.8511 2.3529,1.4811 0,0.6304 -2.7746,5.2085 -6.1664,10.1732 -11.27500013,16.5026 -14.0709001,24.3767 -8.9192001,25.1099 1.7293,0.2471 4.7125,-2.4664 12.8831001,-11.7148 9.3321,-10.562 13.2736,-14.1397 14.3718,-13.041 0.4358,0.4363 -11.3469,18.6163 -15.9798,24.6525 -5.5450001,7.2256 -11.2796001,19.6691 -10.4992001,22.782 0.6831,2.7191 2.9247,4.0668 5.2696,3.1674 0.8071,-0.3098 4.6359001,-4.348 8.5076001,-8.9739 3.8718,-4.6256 7.2669,-8.1835 7.5429,-7.9072 0.2758,0.2759 -1.8984,5.0614 -4.8299,10.6335 -5.4976,10.4433 -6.4741,15.042 -3.7737,17.7426 2.1285,2.1284 4.9116,1.1798 9.0387,-3.0774 1.9109,-1.9716 3.8028,-3.5863 4.203,-3.5863 0.4003,0 1.0425,1.6803 1.428,3.7339 1.4415,7.6852 6.4166,5.8608 18.9907,-6.9602 5.7622,-5.8779 10.0297,-9.4061 11.4213,-9.4061 7.2239,-0.075 20.2561,-10.9186 32.1718,-26.7725 6.6016,-8.7821 7.508996,-9.5969 10.261796,-9.1921 2.5812,0.3788 3.823,-0.4355 8.543,-5.5985 6.1053,-6.6812 15.1468,-24.1474 18.9951,-36.6994 2.4725,-8.0631 7.8867,-31.0282 9.6642,-40.9834 0.6195,-3.4678 3.7287,-12.2147 6.9086,-19.43917 3.1797,-7.224394 6.9072,-16.892294 8.2848,-21.483794 3.3893,-11.2994 5.3217,-12.4316 10.9773,-6.435 1.871,1.9832 3.977,5.2752 4.6779,7.3157 0.706,2.0531 3.9183,6.2102 7.1918,9.3058 3.2546,3.0776 5.9171,6.3054 5.9171,7.1726 0,1.785394 8.7521,10.607464 12.3477,12.446464 1.5331,0.7841 2.3648,2.1665 2.3648,3.9345 0,1.8908 1.6885,4.4066 5.5159,8.2126 3.0339,3.0175 7.881,7.9615 10.7707,10.9875 2.8904,3.0258 6.0831,5.9508 7.0958,6.4999 1.0114,0.5494 2.9712,3.2279 4.352,5.9525 2.9501,5.8174 5.034,7.8523 10.2528,10.0066 2.9915,1.2346 4.0039,2.3561 4.5969,5.0954 1.2575,5.8105 6.3787,14.9189 9.8,17.4328 2.1993,1.6147 3.4321,3.6049 3.9094,6.3052 1.2824,7.26 6.4524,16.694 10.4387,19.0452 2.9958,1.7678 3.6629,2.8019 3.6984,5.6162 0.015,1.8987 1.5522,7.9443 3.4152,13.4349 2.9581,8.7124 3.6977,9.9742 5.8094,10.0095 3.0394,0.034 4.3651,2.0941 4.4006,6.8023 0.042,6.5723 6.821,32.5776 8.4915,32.5776 0.5367,0 1.0253,-3.6675 1.0872,-8.1463 0.3209,-23.5234 3.0004,-35.8348 4.5836,-21.0663 1.4517,13.5417 4.749,31.1654 7.4425,39.7737 4.9267,15.748 5.7743,13.2545 3.1172,-9.1744 -1.6577,-13.999 -2.3398,-32.5157 -1.2392,-33.6176 0.3846,-0.3817 0.6963,0.5974 0.6963,2.1774 0,7.0752 7.5691,33.0266 13.91,47.6958 2.3215,5.3687 4.4189,9.5623 4.6647,9.3161 0.2442,-0.2446 -1.4561,-7.711 -3.7796,-16.592 -3.8329,-14.6483 -7.5456,-33.6843 -7.3555,-37.6907 0.042,-0.8664 1.629,2.9168 3.5258,8.4073 3.7647,10.8882 12.9144,31.1127 13.7153,30.3117 0.2748,-0.2745 -0.4746,-3.0691 -1.6641,-6.2093 -7.0689,-18.6647 -11.6466,-35.2552 -11.1454,-40.3904 0.1133,-1.1563 -0.8854,-6.8311 -2.2172,-12.6103 -5.6948,-24.7038 -6.4793,-29.3045 -8.0637,-47.2856 -5.0542,-57.3359 -10.9773,-93.333764 -17.0861,-103.843064 -1.993,-3.4283 -22.7341,-21.7954 -32.5569,-28.8304 -3.0219,-2.1644 -5.5175,-4.6984 -5.5175,-5.631 -0.033,-2.4799 11.2378,-7.2721 16.3677,-6.9602 4.0068,0.2444 4.1064,0.163 4.4185,-3.5523 0.2803,-3.353902 -0.2303,-4.286602 -4.327,-7.892502 -2.8681,-2.5244 -4.9262,-5.369 -5.3801,-7.4352 -0.9907,-4.5140004 -7.4518,-10.1350004 -14.2375,-12.3890004 -5.9788,-1.9858 -17.7254,-1.7562 -35.3834,0.6918 -7.345,1.018 -9.8573,0.9179 -17.5568,-0.6977 -5.2469,-1.1011 -12.7795,-1.5337 -20.4409,-1.3499 z"
     id="path5" />
</svg>
