<?xml version="1.0" encoding="UTF-8" standalone="no"?>
<!-- Created with Inkscape (http://www.inkscape.org/) -->

<svg
   width="600"
   height="600"
   viewBox="0 0 599.99998 600"
   version="1.1"
   id="svg1"
   inkscape:version="1.4.3 (0d15f75, 2025-12-25)"
   sodipodi:docname="favicon.svg"
   inkscape:export-filename="a3-icon-6-c.png"
   inkscape:export-xdpi="96"
   inkscape:export-ydpi="96"
   xmlns:inkscape="http://www.inkscape.org/namespaces/inkscape"
   xmlns:sodipodi="http://sodipodi.sourceforge.net/DTD/sodipodi-0.dtd"
   xmlns:xlink="http://www.w3.org/1999/xlink"
   xmlns="http://www.w3.org/2000/svg"
   xmlns:svg="http://www.w3.org/2000/svg">
  <sodipodi:namedview
     id="namedview1"
     pagecolor="#1a1a1a"
     bordercolor="#ff0000"
     borderopacity="1"
     inkscape:showpageshadow="0"
     inkscape:pageopacity="0"
     inkscape:pagecheckerboard="false"
     inkscape:deskcolor="#1a1a1a"
     inkscape:document-units="px"
     showborder="false"
     inkscape:zoom="0.42869802"
     inkscape:cx="410.5454"
     inkscape:cy="157.45349"
     inkscape:window-width="1728"
     inkscape:window-height="1056"
     inkscape:window-x="0"
     inkscape:window-y="33"
     inkscape:window-maximized="1"
     inkscape:current-layer="svg1"
     showguides="true">
    <inkscape:page
       x="0"
       y="0"
       width="600"
       height="600"
       id="page2"
       margin="0"
       bleed="0" />
    <sodipodi:guide
       position="1216.6196,875.68908"
       orientation="0,-1"
       id="guide3"
       inkscape:locked="false" />
    <sodipodi:guide
       position="1175.5363,875.68908"
       orientation="1,0"
       id="guide4"
       inkscape:locked="false" />
    <sodipodi:guide
       position="937.1434,756.93908"
       orientation="1,0"
       id="guide5"
       inkscape:locked="false" />
    <sodipodi:guide
       position="1320.5362,990.68908"
       orientation="1,0"
       id="guide6"
       inkscape:locked="false" />
  </sodipodi:namedview>
  <defs
     id="defs1">
    <linearGradient
       id="linearGradient2"
       inkscape:collect="always">
      <stop
         style="stop-color:#00b2b2;stop-opacity:1;"
         offset="0"
         id="stop2" />
      <stop
         style="stop-color:#00ffb3;stop-opacity:1;"
         offset="1"
         id="stop3" />
    </linearGradient>
    <rect
       x="-130.68719"
       y="-1995.158"
       width="2692.1562"
       height="1550.8214"
       id="rect1" />
    <linearGradient
       inkscape:collect="always"
       xlink:href="#linearGradient2"
       id="linearGradient3"
       x1="-24.624703"
       y1="299.99761"
       x2="623.8042"
       y2="299.99761"
       gradientUnits="userSpaceOnUse" />
  </defs>
  <path
     id="path12"
     style="font-weight:bold;font-size:640px;line-height:0.7;font-family:CommitMono-rtemis;-inkscape-font-specification:'CommitMono-rtemis Bold';font-feature-settings:'ss01';letter-spacing:0px;word-spacing:0px;white-space:pre;stroke-width:5.27344;fill:url(#linearGradient3)"
     d="M 482.15668 54.006575 L 482.15668 67.87012 C 491.31994 67.90612 500.49243 67.74272 509.64525 68.25428 C 521.87193 69.21953 534.09179 72.615702 544.45187 79.316832 C 557.76044 87.858642 567.22684 102.0001 570.38269 117.4648 C 572.39923 126.34402 572.5322 135.53279 571.88978 144.57977 C 570.97925 162.31391 570.01016 180.06025 569.22599 197.78386 C 569.21599 198.16438 569.1934 198.87555 569.188 199.38594 C 569.1646 201.44829 569.17932 203.50369 569.25132 205.50295 C 569.68395 218.56618 572.09418 231.70968 577.54665 243.64881 C 579.94659 248.88618 582.97584 253.84954 586.67574 258.27223 C 587.12232 258.80926 587.74957 259.53142 588.2947 260.11705 C 594.03535 266.38168 601.43447 271.21104 609.63248 273.52044 C 610.50233 273.76821 611.48726 274.03124 612.25406 274.19378 C 616.03496 275.05391 619.89546 275.47481 623.73666 275.96261 C 612.73884 267.80321 604.03075 256.71234 598.33564 244.28415 C 592.34533 231.28131 589.62899 216.9445 589.33109 202.68085 C 589.22192 198.00697 589.36687 193.22661 589.68358 188.62734 C 590.54389 172.53003 591.42454 156.43335 592.22284 140.33289 C 592.39798 136.6644 592.52511 132.85429 592.40226 129.12892 C 592.0824 116.56582 589.87255 103.86561 584.39821 92.471158 C 579.96634 83.278558 573.1992 75.197207 564.78915 69.394097 C 554.50773 62.224427 542.36101 58.167461 530.08807 56.047691 C 523.34113 54.890381 516.50659 54.262308 509.66425 54.097338 C 507.89512 54.049638 505.94426 54.037861 504.10448 54.023461 C 498.41351 53.992861 492.7216 54.000586 487.03045 54.008686 L 487.03045 54.006575 C 485.40568 54.006035 483.78154 54.006575 482.15668 54.006575 z M 117.83546 54.008686 C 109.89782 54.008686 101.95947 54.017129 94.021745 54.017129 L 94.021745 54.015018 C 91.608575 54.037518 89.205739 54.105757 86.752249 54.230317 C 85.224499 54.303217 83.581386 54.417349 81.981906 54.538489 C 81.077586 54.615889 79.928502 54.712482 78.931842 54.819222 C 71.064492 55.616892 63.248086 57.087555 55.704916 59.481915 C 54.767026 59.788185 53.60753 60.168211 52.59575 60.537301 C 48.22814 62.106541 43.984548 64.031792 39.973338 66.369362 C 39.543138 66.626492 38.840723 67.034536 38.316383 67.365646 C 30.011543 72.476746 22.863671 79.545804 18.002321 88.025874 C 12.944861 96.616104 10.045139 106.33283 8.6642693 116.16668 C 8.4749993 117.45134 8.2995397 118.92571 8.1724597 120.09904 C 8.0941597 120.95575 8.0039779 121.75444 7.9487179 122.53276 C 7.7900479 124.44778 7.6972876 126.36684 7.6194376 128.28672 C 7.6086376 128.65059 7.5940437 129.3668 7.5814437 129.86558 C 7.5463437 131.60042 7.5395937 133.52528 7.5814437 135.3557 C 7.7708937 142.70708 8.2871455 150.05656 8.6537155 157.43647 C 9.3629155 171.4735 10.247309 185.5032 10.715939 199.55058 C 10.803239 216.57876 7.3691716 233.82541 -0.63578842 248.94685 C -6.2414384 259.50151 -14.192737 268.80319 -23.759287 275.96683 C -17.629927 275.13271 -11.356306 274.5355 -5.583436 272.15689 C -4.403626 271.69582 -3.047222 271.07215 -2.041562 270.56536 C 1.052368 269.01079 3.9610506 267.09564 6.6421506 264.90639 C 7.0990806 264.52515 7.7618398 263.97464 8.2822198 263.50061 C 14.76555 257.73395 19.528344 250.26416 23.019624 242.37602 C 26.948574 233.43164 29.165281 223.64535 30.181471 214.05369 C 30.498811 210.98523 30.70146 207.77449 30.78093 204.77263 C 30.84303 202.28701 30.842 199.80041 30.7556 197.37437 C 29.90267 177.1592 28.616928 156.93831 27.792078 136.71081 C 27.436398 123.55128 30.169529 110.10793 36.883169 98.687379 C 44.104409 86.427039 55.981368 77.147219 69.397488 72.547589 C 79.740198 68.929229 90.778716 67.765859 101.68807 67.868009 C 107.07016 67.882409 112.45337 67.876452 117.83546 67.876452 L 117.83546 54.008686 z M 402.21333 97.499015 C 341.71749 97.499015 296.70925 128.47519 283.87084 175.74319 L 264.16045 103.12422 L 166.28611 103.12422 L 59.41143 496.87592 L 127.47325 496.87592 L 153.34708 398.99946 L 275.97233 398.99946 L 301.84827 496.87592 L 360.39262 496.87592 C 373.90756 500.58014 389.1936 502.49901 406.15203 502.49901 C 484.33953 502.49901 540.58916 451.87595 540.58916 382.12595 C 540.58916 336.00095 515.83975 302.24958 472.52734 286.49958 L 472.52734 284.24949 C 506.83984 269.62449 525.96362 242.06223 525.96362 203.81223 C 525.96362 141.93723 474.77583 97.499015 402.21333 97.499015 z M 402.21333 158.24912 C 434.83842 158.24912 459.58831 180.18743 459.58831 209.43743 C 459.58831 237.56243 437.08841 257.81209 404.46341 257.81209 L 372.4008 257.81209 L 372.4008 322.50089 L 408.96358 322.50089 C 446.65108 322.50089 473.08881 346.68738 473.08881 381.56238 C 473.08881 416.43738 446.65095 440.62598 407.83854 440.62598 C 380.04033 440.62598 356.93671 427.88173 347.07577 408.60769 L 347.07577 408.60558 L 342.0268 390.00546 L 342.0268 389.99913 L 291.6427 204.3758 L 346.52697 204.3758 C 347.65197 177.3758 371.27592 158.24912 402.21333 158.24912 z M 213.53572 173.43823 L 215.7858 173.43823 L 259.09883 337.12431 L 170.22269 337.12431 L 213.53572 173.43823 z M -24.624703 323.38741 L -23.698074 324.06075 L -23.698074 324.06286 C -11.993394 332.74498 -2.9179022 344.76327 2.7477778 358.15392 C 7.8105478 370.06776 10.221558 382.99539 10.631508 395.90085 C 10.805028 400.99539 10.671087 406.09792 10.327557 411.18283 C 9.435207 428.22325 8.4403738 445.42893 7.6637638 462.51678 C 7.6286638 463.25541 7.6027976 463.72419 7.5919976 464.44392 C 7.5370976 466.28325 7.5492899 468.28915 7.5708899 470.0248 C 7.5915899 470.72698 7.6083915 471.62945 7.6299915 472.20311 C 7.6884915 473.52053 7.7531709 474.89755 7.8474009 476.16925 C 7.9865409 478.16752 8.1888384 480.21698 8.4426384 482.26727 C 8.5688184 483.26015 8.7397557 484.47508 8.9006757 485.46931 C 9.2489757 487.68088 9.6934008 489.87669 10.200911 492.05703 C 10.308731 492.46482 10.475613 493.19084 10.616733 493.72031 C 13.163553 503.67674 17.647068 513.26377 24.482388 521.00836 C 31.325088 528.82261 40.245251 534.66252 49.889741 538.42434 C 58.113491 541.69143 66.634601 543.64785 75.427961 544.77987 C 77.012951 544.98363 78.794721 545.17604 80.462151 545.32445 C 83.113371 545.56763 85.772383 545.72209 88.432423 545.82892 C 89.134783 545.85142 90.111071 545.87729 90.918911 545.90069 C 93.267101 545.95019 95.817959 545.98239 98.247509 545.97879 C 106.6545 545.98779 115.06221 545.99176 123.46911 545.99356 L 123.46911 532.12791 C 112.99698 532.09551 102.51958 532.22045 92.052395 531.86617 C 79.716095 531.09946 67.338444 527.94515 56.741304 521.43896 C 43.028364 513.09146 33.12741 498.87925 29.76987 483.20656 C 27.7005 474.43984 27.442255 465.34696 28.058035 456.39133 C 28.154065 454.60231 28.256523 452.63203 28.353543 450.77245 C 29.180823 434.68909 30.049951 418.61821 30.757711 402.54133 C 30.771211 402.02194 30.799959 401.2011 30.806259 400.56354 C 30.875559 396.28539 30.728152 391.99339 30.350332 387.7786 C 29.515852 378.48061 27.575094 368.94868 24.060234 360.11905 C 23.696184 359.18575 23.331299 358.32571 22.949969 357.47215 C 18.842909 348.1108 12.749672 339.39671 4.4026224 333.35447 C 2.6988324 332.10842 0.744542 330.8941 -1.017838 329.96035 C -6.627898 326.94724 -12.882439 325.2988 -19.193689 324.6391 C -21.040219 324.4105 -22.869973 324.01039 -24.624703 323.38741 z M 623.8042 324.00376 C 623.58748 324.03346 623.37089 324.06392 623.15408 324.09452 C 619.29389 324.65189 615.37573 325.07693 611.54695 325.952 C 600.43474 328.61132 590.63078 335.74058 584.09426 345.04181 C 576.69707 355.33727 572.56047 367.6516 570.58533 380.08906 C 569.50902 386.90503 569.08769 393.81836 569.19011 400.71551 C 569.20721 401.41346 569.22528 402.38636 569.26398 403.18934 C 570.04419 422.03651 571.24362 440.91308 572.0502 459.78545 C 572.30328 464.96243 572.29649 470.16697 571.64282 475.3165 C 570.24737 486.74632 566.22649 498.01244 559.13017 507.16382 C 551.30998 517.33031 540.09215 524.6845 527.84432 528.35596 C 517.38713 531.56329 506.36092 532.32204 495.47776 532.12368 C 489.16255 532.10748 482.84677 532.12296 476.53147 532.12368 L 476.53147 545.99356 C 487.27279 545.97826 498.09876 546.04693 508.78617 545.85847 C 511.36242 545.79367 513.94321 545.78159 516.5137 545.57774 C 517.7719 545.48024 519.23684 545.36959 520.57271 545.22946 C 531.58133 544.15567 542.68922 541.74642 552.75986 537.3204 C 561.29222 533.59026 569.17328 528.21549 575.34512 521.20467 C 580.04015 515.9106 583.67592 509.7249 586.30635 503.16813 C 586.66635 502.27956 587.0875 501.15765 587.43139 500.1645 C 591.02473 489.87687 592.40264 478.92038 592.43603 468.05756 C 592.44503 466.34162 592.41075 464.71237 592.36215 463.04026 C 592.05012 453.79843 591.42023 444.53281 590.9606 435.26884 C 590.35967 423.69133 589.63224 412.1188 589.30365 400.52977 C 589.19403 388.5172 590.90927 376.45226 594.68189 365.03504 C 598.44902 353.66363 604.42456 342.96127 612.58756 334.15657 C 615.99793 330.43147 619.765 327.03415 623.8042 324.00376 z "
     transform="matrix(0.92531347,0,0,0.92531347,21.975022,22.087535)" />
</svg>
